<mxfile host="app.diagrams.net" modified="2023-09-28T06:34:03.264Z" agent="Mozilla/5.0 (Windows NT 10.0; Win64; x64) AppleWebKit/537.36 (KHTML, like Gecko) Chrome/117.0.0.0 Safari/537.36" etag="U71LzJf54Lwf_yiWjznn" version="21.8.2" type="device">
  <diagram name="Page-1" id="fl07hnaQBl7jb1sKk9yK">
    <mxGraphModel dx="1687" dy="882" grid="1" gridSize="10" guides="1" tooltips="1" connect="1" arrows="1" fold="1" page="1" pageScale="1" pageWidth="850" pageHeight="1100" math="0" shadow="0">
      <root>
        <mxCell id="0" />
        <mxCell id="1" parent="0" />
        <mxCell id="WnFqpqB8OFLicmt6QoG0-3" value="" style="edgeStyle=orthogonalEdgeStyle;rounded=0;orthogonalLoop=1;jettySize=auto;html=1;" edge="1" parent="1" source="WnFqpqB8OFLicmt6QoG0-1" target="WnFqpqB8OFLicmt6QoG0-2">
          <mxGeometry relative="1" as="geometry" />
        </mxCell>
        <mxCell id="WnFqpqB8OFLicmt6QoG0-1" value="Start" style="rounded=1;whiteSpace=wrap;html=1;" vertex="1" parent="1">
          <mxGeometry x="127.5" y="60" width="120" height="60" as="geometry" />
        </mxCell>
        <mxCell id="WnFqpqB8OFLicmt6QoG0-5" value="" style="edgeStyle=orthogonalEdgeStyle;rounded=0;orthogonalLoop=1;jettySize=auto;html=1;" edge="1" parent="1" source="WnFqpqB8OFLicmt6QoG0-2" target="WnFqpqB8OFLicmt6QoG0-4">
          <mxGeometry relative="1" as="geometry" />
        </mxCell>
        <mxCell id="WnFqpqB8OFLicmt6QoG0-2" value="int number;&lt;br&gt;int product = 1;" style="rounded=1;whiteSpace=wrap;html=1;" vertex="1" parent="1">
          <mxGeometry x="127.5" y="200" width="120" height="60" as="geometry" />
        </mxCell>
        <mxCell id="WnFqpqB8OFLicmt6QoG0-10" value="" style="edgeStyle=orthogonalEdgeStyle;rounded=0;orthogonalLoop=1;jettySize=auto;html=1;" edge="1" parent="1" source="WnFqpqB8OFLicmt6QoG0-4" target="WnFqpqB8OFLicmt6QoG0-9">
          <mxGeometry relative="1" as="geometry" />
        </mxCell>
        <mxCell id="WnFqpqB8OFLicmt6QoG0-13" value="True" style="edgeLabel;html=1;align=center;verticalAlign=middle;resizable=0;points=[];" vertex="1" connectable="0" parent="WnFqpqB8OFLicmt6QoG0-10">
          <mxGeometry x="0.1667" y="6" relative="1" as="geometry">
            <mxPoint as="offset" />
          </mxGeometry>
        </mxCell>
        <mxCell id="WnFqpqB8OFLicmt6QoG0-15" value="" style="edgeStyle=orthogonalEdgeStyle;rounded=0;orthogonalLoop=1;jettySize=auto;html=1;" edge="1" parent="1" source="WnFqpqB8OFLicmt6QoG0-4" target="WnFqpqB8OFLicmt6QoG0-14">
          <mxGeometry relative="1" as="geometry" />
        </mxCell>
        <mxCell id="WnFqpqB8OFLicmt6QoG0-16" value="False" style="edgeLabel;html=1;align=center;verticalAlign=middle;resizable=0;points=[];" vertex="1" connectable="0" parent="WnFqpqB8OFLicmt6QoG0-15">
          <mxGeometry x="-0.4571" y="3" relative="1" as="geometry">
            <mxPoint as="offset" />
          </mxGeometry>
        </mxCell>
        <mxCell id="WnFqpqB8OFLicmt6QoG0-4" value="number &amp;lt;= 0" style="rhombus;whiteSpace=wrap;html=1;rounded=1;" vertex="1" parent="1">
          <mxGeometry x="147.5" y="330" width="80" height="80" as="geometry" />
        </mxCell>
        <mxCell id="WnFqpqB8OFLicmt6QoG0-12" style="edgeStyle=orthogonalEdgeStyle;rounded=0;orthogonalLoop=1;jettySize=auto;html=1;" edge="1" parent="1" source="WnFqpqB8OFLicmt6QoG0-9" target="WnFqpqB8OFLicmt6QoG0-11">
          <mxGeometry relative="1" as="geometry" />
        </mxCell>
        <mxCell id="WnFqpqB8OFLicmt6QoG0-9" value="Please enter a positive number" style="shape=document;whiteSpace=wrap;html=1;boundedLbl=1;rounded=1;" vertex="1" parent="1">
          <mxGeometry x="287.5" y="330" width="120" height="80" as="geometry" />
        </mxCell>
        <mxCell id="WnFqpqB8OFLicmt6QoG0-11" value="End" style="ellipse;whiteSpace=wrap;html=1;" vertex="1" parent="1">
          <mxGeometry x="467.5" y="330" width="120" height="80" as="geometry" />
        </mxCell>
        <mxCell id="WnFqpqB8OFLicmt6QoG0-18" value="" style="edgeStyle=orthogonalEdgeStyle;rounded=0;orthogonalLoop=1;jettySize=auto;html=1;" edge="1" parent="1" source="WnFqpqB8OFLicmt6QoG0-14" target="WnFqpqB8OFLicmt6QoG0-17">
          <mxGeometry relative="1" as="geometry" />
        </mxCell>
        <mxCell id="WnFqpqB8OFLicmt6QoG0-19" value="True" style="edgeLabel;html=1;align=center;verticalAlign=middle;resizable=0;points=[];" vertex="1" connectable="0" parent="WnFqpqB8OFLicmt6QoG0-18">
          <mxGeometry x="-0.5" y="-4" relative="1" as="geometry">
            <mxPoint as="offset" />
          </mxGeometry>
        </mxCell>
        <mxCell id="WnFqpqB8OFLicmt6QoG0-21" value="" style="edgeStyle=orthogonalEdgeStyle;rounded=0;orthogonalLoop=1;jettySize=auto;html=1;" edge="1" parent="1" source="WnFqpqB8OFLicmt6QoG0-14" target="WnFqpqB8OFLicmt6QoG0-20">
          <mxGeometry relative="1" as="geometry" />
        </mxCell>
        <mxCell id="WnFqpqB8OFLicmt6QoG0-22" value="False" style="edgeLabel;html=1;align=center;verticalAlign=middle;resizable=0;points=[];" vertex="1" connectable="0" parent="WnFqpqB8OFLicmt6QoG0-21">
          <mxGeometry x="0.1143" y="-1" relative="1" as="geometry">
            <mxPoint as="offset" />
          </mxGeometry>
        </mxCell>
        <mxCell id="WnFqpqB8OFLicmt6QoG0-14" value="product &amp;lt;&amp;nbsp;number" style="rhombus;whiteSpace=wrap;html=1;rounded=1;" vertex="1" parent="1">
          <mxGeometry x="127.5" y="480" width="120" height="120" as="geometry" />
        </mxCell>
        <mxCell id="WnFqpqB8OFLicmt6QoG0-24" style="edgeStyle=orthogonalEdgeStyle;rounded=0;orthogonalLoop=1;jettySize=auto;html=1;entryX=1;entryY=1;entryDx=0;entryDy=0;" edge="1" parent="1" source="WnFqpqB8OFLicmt6QoG0-17" target="WnFqpqB8OFLicmt6QoG0-4">
          <mxGeometry relative="1" as="geometry">
            <Array as="points">
              <mxPoint x="387.5" y="470" />
              <mxPoint x="277.5" y="470" />
              <mxPoint x="277.5" y="420" />
              <mxPoint x="207.5" y="420" />
            </Array>
          </mxGeometry>
        </mxCell>
        <mxCell id="WnFqpqB8OFLicmt6QoG0-17" value="product *= 2" style="whiteSpace=wrap;html=1;rounded=1;" vertex="1" parent="1">
          <mxGeometry x="327.5" y="510" width="120" height="60" as="geometry" />
        </mxCell>
        <mxCell id="WnFqpqB8OFLicmt6QoG0-23" style="edgeStyle=orthogonalEdgeStyle;rounded=0;orthogonalLoop=1;jettySize=auto;html=1;entryX=0.5;entryY=1;entryDx=0;entryDy=0;" edge="1" parent="1" source="WnFqpqB8OFLicmt6QoG0-20" target="WnFqpqB8OFLicmt6QoG0-11">
          <mxGeometry relative="1" as="geometry" />
        </mxCell>
        <mxCell id="WnFqpqB8OFLicmt6QoG0-20" value="$&quot;Is {number} power of 2?&quot; + (number == product)" style="shape=document;whiteSpace=wrap;html=1;boundedLbl=1;rounded=1;" vertex="1" parent="1">
          <mxGeometry x="90" y="670" width="195" height="130" as="geometry" />
        </mxCell>
        <mxCell id="WnFqpqB8OFLicmt6QoG0-25" value="Task 1" style="text;html=1;strokeColor=none;fillColor=none;align=center;verticalAlign=middle;whiteSpace=wrap;rounded=0;fontSize=28;" vertex="1" parent="1">
          <mxGeometry x="142.5" width="90" height="40" as="geometry" />
        </mxCell>
        <mxCell id="WnFqpqB8OFLicmt6QoG0-33" value="" style="edgeStyle=orthogonalEdgeStyle;rounded=0;orthogonalLoop=1;jettySize=auto;html=1;" edge="1" parent="1" source="WnFqpqB8OFLicmt6QoG0-28" target="WnFqpqB8OFLicmt6QoG0-32">
          <mxGeometry relative="1" as="geometry" />
        </mxCell>
        <mxCell id="WnFqpqB8OFLicmt6QoG0-28" value="Start" style="rounded=1;whiteSpace=wrap;html=1;" vertex="1" parent="1">
          <mxGeometry x="127.5" y="950" width="120" height="60" as="geometry" />
        </mxCell>
        <mxCell id="WnFqpqB8OFLicmt6QoG0-29" value="Task 2" style="text;html=1;strokeColor=none;fillColor=none;align=center;verticalAlign=middle;whiteSpace=wrap;rounded=0;fontSize=28;" vertex="1" parent="1">
          <mxGeometry x="142.5" y="890" width="90" height="40" as="geometry" />
        </mxCell>
        <mxCell id="WnFqpqB8OFLicmt6QoG0-35" value="" style="edgeStyle=orthogonalEdgeStyle;rounded=0;orthogonalLoop=1;jettySize=auto;html=1;" edge="1" parent="1" source="WnFqpqB8OFLicmt6QoG0-32" target="WnFqpqB8OFLicmt6QoG0-34">
          <mxGeometry relative="1" as="geometry" />
        </mxCell>
        <mxCell id="WnFqpqB8OFLicmt6QoG0-32" value="int number;" style="whiteSpace=wrap;html=1;rounded=1;" vertex="1" parent="1">
          <mxGeometry x="127.5" y="1090" width="120" height="60" as="geometry" />
        </mxCell>
        <mxCell id="WnFqpqB8OFLicmt6QoG0-37" value="" style="edgeStyle=orthogonalEdgeStyle;rounded=0;orthogonalLoop=1;jettySize=auto;html=1;" edge="1" parent="1" source="WnFqpqB8OFLicmt6QoG0-34" target="WnFqpqB8OFLicmt6QoG0-36">
          <mxGeometry relative="1" as="geometry" />
        </mxCell>
        <mxCell id="WnFqpqB8OFLicmt6QoG0-40" value="True" style="edgeLabel;html=1;align=center;verticalAlign=middle;resizable=0;points=[];" vertex="1" connectable="0" parent="WnFqpqB8OFLicmt6QoG0-37">
          <mxGeometry x="-0.0008" y="-3" relative="1" as="geometry">
            <mxPoint as="offset" />
          </mxGeometry>
        </mxCell>
        <mxCell id="WnFqpqB8OFLicmt6QoG0-46" value="" style="edgeStyle=orthogonalEdgeStyle;rounded=0;orthogonalLoop=1;jettySize=auto;html=1;" edge="1" parent="1" source="WnFqpqB8OFLicmt6QoG0-34" target="WnFqpqB8OFLicmt6QoG0-45">
          <mxGeometry relative="1" as="geometry" />
        </mxCell>
        <mxCell id="WnFqpqB8OFLicmt6QoG0-47" value="False" style="edgeLabel;html=1;align=center;verticalAlign=middle;resizable=0;points=[];" vertex="1" connectable="0" parent="WnFqpqB8OFLicmt6QoG0-46">
          <mxGeometry x="0.1226" relative="1" as="geometry">
            <mxPoint as="offset" />
          </mxGeometry>
        </mxCell>
        <mxCell id="WnFqpqB8OFLicmt6QoG0-34" value="number &amp;lt;= 1" style="rhombus;whiteSpace=wrap;html=1;rounded=1;" vertex="1" parent="1">
          <mxGeometry x="147.5" y="1220" width="80" height="80" as="geometry" />
        </mxCell>
        <mxCell id="WnFqpqB8OFLicmt6QoG0-39" style="edgeStyle=orthogonalEdgeStyle;rounded=0;orthogonalLoop=1;jettySize=auto;html=1;entryX=0;entryY=0.5;entryDx=0;entryDy=0;" edge="1" parent="1" source="WnFqpqB8OFLicmt6QoG0-36" target="WnFqpqB8OFLicmt6QoG0-38">
          <mxGeometry relative="1" as="geometry" />
        </mxCell>
        <mxCell id="WnFqpqB8OFLicmt6QoG0-36" value="Please enter a number greater than 1" style="shape=document;whiteSpace=wrap;html=1;boundedLbl=1;rounded=1;" vertex="1" parent="1">
          <mxGeometry x="287.5" y="1220" width="120" height="80" as="geometry" />
        </mxCell>
        <mxCell id="WnFqpqB8OFLicmt6QoG0-38" value="End" style="ellipse;whiteSpace=wrap;html=1;" vertex="1" parent="1">
          <mxGeometry x="448" y="1220" width="120" height="80" as="geometry" />
        </mxCell>
        <mxCell id="WnFqpqB8OFLicmt6QoG0-49" value="" style="edgeStyle=orthogonalEdgeStyle;rounded=0;orthogonalLoop=1;jettySize=auto;html=1;" edge="1" parent="1" source="WnFqpqB8OFLicmt6QoG0-45" target="WnFqpqB8OFLicmt6QoG0-48">
          <mxGeometry relative="1" as="geometry" />
        </mxCell>
        <mxCell id="WnFqpqB8OFLicmt6QoG0-50" value="False" style="edgeLabel;html=1;align=center;verticalAlign=middle;resizable=0;points=[];" vertex="1" connectable="0" parent="WnFqpqB8OFLicmt6QoG0-49">
          <mxGeometry x="-0.0179" y="-4" relative="1" as="geometry">
            <mxPoint as="offset" />
          </mxGeometry>
        </mxCell>
        <mxCell id="WnFqpqB8OFLicmt6QoG0-55" value="" style="edgeStyle=orthogonalEdgeStyle;rounded=0;orthogonalLoop=1;jettySize=auto;html=1;" edge="1" parent="1" source="WnFqpqB8OFLicmt6QoG0-45" target="WnFqpqB8OFLicmt6QoG0-54">
          <mxGeometry relative="1" as="geometry" />
        </mxCell>
        <mxCell id="WnFqpqB8OFLicmt6QoG0-56" value="True" style="edgeLabel;html=1;align=center;verticalAlign=middle;resizable=0;points=[];" vertex="1" connectable="0" parent="WnFqpqB8OFLicmt6QoG0-55">
          <mxGeometry x="0.0868" y="4" relative="1" as="geometry">
            <mxPoint as="offset" />
          </mxGeometry>
        </mxCell>
        <mxCell id="WnFqpqB8OFLicmt6QoG0-45" value="int i = 2; i * i &amp;lt;= number; i++" style="shape=hexagon;perimeter=hexagonPerimeter2;whiteSpace=wrap;html=1;fixedSize=1;rounded=1;" vertex="1" parent="1">
          <mxGeometry x="105" y="1380" width="165" height="110" as="geometry" />
        </mxCell>
        <mxCell id="WnFqpqB8OFLicmt6QoG0-53" style="edgeStyle=orthogonalEdgeStyle;rounded=0;orthogonalLoop=1;jettySize=auto;html=1;entryX=0.5;entryY=1;entryDx=0;entryDy=0;" edge="1" parent="1" source="WnFqpqB8OFLicmt6QoG0-48" target="WnFqpqB8OFLicmt6QoG0-38">
          <mxGeometry relative="1" as="geometry" />
        </mxCell>
        <mxCell id="WnFqpqB8OFLicmt6QoG0-48" value="$&quot;Is {number} prime?\nTrue&quot;" style="shape=document;whiteSpace=wrap;html=1;boundedLbl=1;rounded=1;" vertex="1" parent="1">
          <mxGeometry x="372.5" y="1382.5" width="157.5" height="105" as="geometry" />
        </mxCell>
        <mxCell id="WnFqpqB8OFLicmt6QoG0-58" value="" style="edgeStyle=orthogonalEdgeStyle;rounded=0;orthogonalLoop=1;jettySize=auto;html=1;" edge="1" parent="1" source="WnFqpqB8OFLicmt6QoG0-54" target="WnFqpqB8OFLicmt6QoG0-57">
          <mxGeometry relative="1" as="geometry" />
        </mxCell>
        <mxCell id="WnFqpqB8OFLicmt6QoG0-59" value="True" style="edgeLabel;html=1;align=center;verticalAlign=middle;resizable=0;points=[];" vertex="1" connectable="0" parent="WnFqpqB8OFLicmt6QoG0-58">
          <mxGeometry x="-0.1422" y="2" relative="1" as="geometry">
            <mxPoint as="offset" />
          </mxGeometry>
        </mxCell>
        <mxCell id="WnFqpqB8OFLicmt6QoG0-61" style="edgeStyle=orthogonalEdgeStyle;rounded=0;orthogonalLoop=1;jettySize=auto;html=1;entryX=0;entryY=0.5;entryDx=0;entryDy=0;" edge="1" parent="1" source="WnFqpqB8OFLicmt6QoG0-54" target="WnFqpqB8OFLicmt6QoG0-45">
          <mxGeometry relative="1" as="geometry">
            <Array as="points">
              <mxPoint x="90" y="1643" />
              <mxPoint x="90" y="1435" />
            </Array>
          </mxGeometry>
        </mxCell>
        <mxCell id="WnFqpqB8OFLicmt6QoG0-62" value="False" style="edgeLabel;html=1;align=center;verticalAlign=middle;resizable=0;points=[];" vertex="1" connectable="0" parent="WnFqpqB8OFLicmt6QoG0-61">
          <mxGeometry x="-0.153" y="1" relative="1" as="geometry">
            <mxPoint as="offset" />
          </mxGeometry>
        </mxCell>
        <mxCell id="WnFqpqB8OFLicmt6QoG0-54" value="number % i == 0" style="rhombus;whiteSpace=wrap;html=1;rounded=1;" vertex="1" parent="1">
          <mxGeometry x="130" y="1585" width="115" height="115" as="geometry" />
        </mxCell>
        <mxCell id="WnFqpqB8OFLicmt6QoG0-60" style="edgeStyle=orthogonalEdgeStyle;rounded=0;orthogonalLoop=1;jettySize=auto;html=1;entryX=1;entryY=0.5;entryDx=0;entryDy=0;" edge="1" parent="1" source="WnFqpqB8OFLicmt6QoG0-57" target="WnFqpqB8OFLicmt6QoG0-38">
          <mxGeometry relative="1" as="geometry">
            <Array as="points">
              <mxPoint x="588" y="1643" />
              <mxPoint x="588" y="1260" />
            </Array>
          </mxGeometry>
        </mxCell>
        <mxCell id="WnFqpqB8OFLicmt6QoG0-57" value="$&quot;Is {number} prime?\nFalse&quot;" style="shape=document;whiteSpace=wrap;html=1;boundedLbl=1;rounded=1;" vertex="1" parent="1">
          <mxGeometry x="320" y="1588.75" width="161.25" height="107.5" as="geometry" />
        </mxCell>
      </root>
    </mxGraphModel>
  </diagram>
</mxfile>
